<svg width="106" height="44" viewBox="0 0 106 44" fill="none" xmlns="http://www.w3.org/2000/svg">
<rect x="62" width="44" height="44" rx="22" fill="#F0F2F3"/>
<path d="M87.5 17.5L92 22M92 22L87.5 26.5M92 22H76" stroke="#272343" stroke-width="1.5" stroke-linecap="round" stroke-linejoin="round"/>
<rect width="44" height="44" rx="22" transform="matrix(-1 0 0 1 44 0)" fill="#007580"/>
<rect width="24" height="24" transform="matrix(-1 0 0 1 34 10)" fill="#007580"/>
<path d="M18.5 17.5L14 22M14 22L18.5 26.5M14 22H30" stroke="white" stroke-width="1.5" stroke-linecap="round" stroke-linejoin="round"/>
<g filter="url(#filter0_d_1_1824)">
<path fill-rule="evenodd" clip-rule="evenodd" d="M26.83 34.473C26.553 34.097 26.215 33.328 25.614 32.394C25.274 31.866 24.429 30.871 24.178 30.366C23.96 29.92 23.983 29.72 24.035 29.35C24.127 28.692 24.757 28.18 25.429 28.248C25.937 28.3 26.368 28.659 26.755 28.998C26.989 29.203 27.277 29.6 27.45 29.824C27.61 30.03 27.649 30.114 27.819 30.358C28.044 30.68 28.114 30.838 28.029 30.485C27.959 29.965 27.845 29.077 27.681 28.292C27.556 27.697 27.525 27.604 27.406 27.147C27.28 26.661 27.216 26.32 27.096 25.805C27.015 25.44 26.866 24.695 26.826 24.275C26.771 23.702 26.742 22.768 27.085 22.338C27.354 22.002 27.971 21.9 28.354 22.108C28.855 22.378 29.14 23.158 29.27 23.47C29.504 24.03 29.649 24.676 29.775 25.525C29.935 26.605 30.231 28.105 30.241 28.42C30.264 28.034 30.174 27.22 30.237 26.848C30.293 26.512 30.557 26.121 30.888 26.015C31.168 25.926 31.496 25.894 31.784 25.958C32.091 26.025 32.414 26.259 32.534 26.48C32.888 27.134 32.895 28.47 32.91 28.4C32.994 28.005 32.98 27.111 33.188 26.74C33.325 26.494 33.674 26.273 33.86 26.237C34.147 26.183 34.5 26.167 34.803 26.229C35.047 26.28 35.376 26.591 35.465 26.739C35.679 27.099 35.8 28.119 35.836 28.477C35.851 28.624 35.909 28.066 36.123 27.706C36.52 27.036 37.926 26.906 37.98 28.376C38.004 29.06 38 29.029 38 29.49C38 30.032 37.988 30.358 37.96 30.75C37.93 31.169 37.846 32.116 37.724 32.575C37.64 32.891 37.361 33.6 37.086 34.025C37.086 34.025 36.035 35.335 35.92 35.925C35.805 36.515 35.843 36.519 35.82 36.937C35.798 37.354 35.939 37.903 35.939 37.903C35.939 37.903 35.154 38.012 34.732 37.94C34.349 37.874 33.875 37.058 33.753 36.809C33.585 36.465 33.226 36.531 33.086 36.785C32.866 37.186 32.392 37.906 32.057 37.951C31.404 38.039 30.047 37.984 28.987 37.972C28.987 37.972 29.167 36.912 28.764 36.549C28.466 36.278 27.952 35.727 27.644 35.439L26.831 34.473H26.83Z" fill="white"/>
<path fill-rule="evenodd" clip-rule="evenodd" d="M26.83 34.473C26.553 34.097 26.215 33.328 25.614 32.394C25.274 31.866 24.429 30.871 24.178 30.366C23.96 29.92 23.983 29.72 24.035 29.35C24.127 28.692 24.757 28.18 25.429 28.248C25.937 28.3 26.368 28.659 26.755 28.998C26.989 29.203 27.277 29.6 27.45 29.824C27.61 30.03 27.649 30.114 27.819 30.358C28.044 30.68 28.114 30.838 28.029 30.485C27.959 29.965 27.845 29.077 27.681 28.292C27.556 27.697 27.525 27.604 27.406 27.147C27.28 26.661 27.216 26.32 27.096 25.805C27.015 25.44 26.866 24.695 26.826 24.275C26.771 23.702 26.742 22.768 27.085 22.338C27.354 22.002 27.971 21.9 28.354 22.108C28.855 22.378 29.14 23.158 29.27 23.47C29.504 24.03 29.649 24.676 29.775 25.525C29.935 26.605 30.231 28.105 30.241 28.42C30.264 28.034 30.174 27.22 30.237 26.848C30.293 26.512 30.557 26.121 30.888 26.015C31.168 25.926 31.496 25.894 31.784 25.958C32.091 26.025 32.414 26.259 32.534 26.48C32.888 27.134 32.895 28.47 32.91 28.4C32.994 28.005 32.98 27.111 33.188 26.74C33.325 26.494 33.674 26.273 33.86 26.237C34.147 26.183 34.5 26.167 34.803 26.229C35.047 26.28 35.376 26.591 35.465 26.739C35.679 27.099 35.8 28.119 35.836 28.477C35.851 28.624 35.909 28.066 36.123 27.706C36.52 27.036 37.926 26.906 37.98 28.376C38.004 29.06 38 29.029 38 29.49C38 30.032 37.988 30.358 37.96 30.75C37.93 31.169 37.846 32.116 37.724 32.575C37.64 32.891 37.361 33.6 37.086 34.025C37.086 34.025 36.035 35.335 35.92 35.925C35.805 36.515 35.843 36.519 35.82 36.937C35.798 37.354 35.939 37.903 35.939 37.903C35.939 37.903 35.154 38.012 34.732 37.94C34.349 37.874 33.875 37.058 33.753 36.809C33.585 36.465 33.226 36.531 33.086 36.785C32.866 37.186 32.392 37.906 32.057 37.951C31.404 38.039 30.047 37.984 28.987 37.972C28.987 37.972 29.167 36.912 28.764 36.549C28.466 36.278 27.952 35.727 27.644 35.439L26.831 34.473H26.83Z" stroke="black" stroke-width="0.75" stroke-linecap="round" stroke-linejoin="round"/>
</g>
<path fill-rule="evenodd" clip-rule="evenodd" d="M30.875 31.5C30.875 31.4005 30.8355 31.3052 30.7652 31.2348C30.6948 31.1645 30.5995 31.125 30.5 31.125C30.4005 31.125 30.3052 31.1645 30.2348 31.2348C30.1645 31.3052 30.125 31.4005 30.125 31.5V34.5C30.125 34.5995 30.1645 34.6948 30.2348 34.7652C30.3052 34.8355 30.4005 34.875 30.5 34.875C30.5995 34.875 30.6948 34.8355 30.7652 34.7652C30.8355 34.6948 30.875 34.5995 30.875 34.5V31.5ZM32.5 31.125C32.707 31.125 32.875 31.293 32.875 31.5V34.5C32.875 34.5995 32.8355 34.6948 32.7652 34.7652C32.6948 34.8355 32.5995 34.875 32.5 34.875C32.4005 34.875 32.3052 34.8355 32.2348 34.7652C32.1645 34.6948 32.125 34.5995 32.125 34.5V31.5C32.125 31.293 32.293 31.125 32.5 31.125ZM34.5 31.125C34.707 31.125 34.875 31.293 34.875 31.5V34.5C34.875 34.5995 34.8355 34.6948 34.7652 34.7652C34.6948 34.8355 34.5995 34.875 34.5 34.875C34.4005 34.875 34.3052 34.8355 34.2348 34.7652C34.1645 34.6948 34.125 34.5995 34.125 34.5V31.5C34.125 31.293 34.293 31.125 34.5 31.125Z" fill="black"/>
<defs>
<filter id="filter0_d_1_1824" x="21.625" y="20.6253" width="18.7502" height="20.7497" filterUnits="userSpaceOnUse" color-interpolation-filters="sRGB">
<feFlood flood-opacity="0" result="BackgroundImageFix"/>
<feColorMatrix in="SourceAlpha" type="matrix" values="0 0 0 0 0 0 0 0 0 0 0 0 0 0 0 0 0 0 127 0" result="hardAlpha"/>
<feOffset dy="1"/>
<feGaussianBlur stdDeviation="1"/>
<feColorMatrix type="matrix" values="0 0 0 0 0 0 0 0 0 0 0 0 0 0 0 0 0 0 0.24 0"/>
<feBlend mode="normal" in2="BackgroundImageFix" result="effect1_dropShadow_1_1824"/>
<feBlend mode="normal" in="SourceGraphic" in2="effect1_dropShadow_1_1824" result="shape"/>
</filter>
</defs>
</svg>
